<?xml version="1.0" standalone="no"?>
<!DOCTYPE svg PUBLIC "-//W3C//DTD SVG 20010904//EN"
 "http://www.w3.org/TR/2001/REC-SVG-20010904/DTD/svg10.dtd">
<svg version="1.0" xmlns="http://www.w3.org/2000/svg"
 width="300.000000pt" height="300.000000pt" viewBox="0 0 300.000000 300.000000"
 preserveAspectRatio="xMidYMid meet">
<metadata>
Created by potrace 1.10, written by Peter Selinger 2001-2011
</metadata>
<g transform="translate(0.000000,300.000000) scale(0.050000,-0.050000)"
fill="#f85a16" stroke="none">
<path d="M2530 5940 c-265 -60 -450 -297 -450 -577 0 -730 1087 -777 1173 -50
44 368 -352 712 -723 627z m343 -183 c271 -126 321 -510 95 -721 -210 -195
-613 -113 -717 147 -161 403 225 759 622 574z"/>
<path d="M3605 4920 c-741 -104 -1474 -416 -1749 -746 -516 -621 -154 -1257
794 -1393 168 -24 209 4 212 144 2 58 10 132 19 165 11 37 14 -57 10 -240 -15
-661 -223 -916 -669 -822 -254 53 -524 204 -766 425 -145 134 -144 134 -295
-23 l-125 -130 147 -163 c281 -312 708 -607 1032 -714 567 -186 1152 124 1490
790 119 234 116 232 175 136 264 -427 76 -1035 -588 -1896 -159 -207 -160
-209 -137 -245 22 -33 337 -188 382 -188 94 0 421 301 630 580 679 906 726
1771 139 2596 -106 149 -104 175 4 64 97 -99 122 -99 240 -2 479 396 525 934
115 1339 -268 265 -647 381 -1060 323z m585 -183 c602 -201 794 -803 399
-1252 -133 -151 -147 -156 -237 -73 l-76 69 53 70 c316 413 134 814 -390 860
-224 20 -223 22 -140 -378 37 -178 75 -376 84 -442 15 -102 31 -134 116 -231
540 -621 711 -1300 482 -1912 -167 -446 -521 -952 -847 -1211 l-96 -76 -107
53 -106 52 214 287 c559 750 722 1350 490 1807 -148 293 -259 290 -409 -11
-507 -1017 -1304 -1108 -2204 -252 -187 178 -198 197 -138 251 37 34 43 32
148 -54 915 -745 1568 -518 1608 559 l12 303 -228 423 c-279 520 -311 536
-532 265 -226 -277 -90 -610 293 -716 61 -17 120 -34 132 -37 12 -4 17 -43 12
-91 l-8 -85 -94 13 c-1191 158 -1128 1196 98 1621 672 233 1152 294 1471 188z
m-39 -519 c244 -114 263 -318 58 -598 -49 -66 -89 -129 -89 -140 0 -35 -37
-22 -69 24 -17 25 -31 70 -31 100 0 30 -27 181 -60 336 -78 365 -79 347 25
330 47 -7 122 -31 166 -52z m-1466 -685 c176 -330 196 -375 150 -338 -14 11
-74 31 -135 45 -376 87 -495 324 -278 556 82 88 69 101 263 -263z"/>
</g>
</svg>
